<svg width="50" height="23" viewBox="0 0 50 23" fill="none" xmlns="http://www.w3.org/2000/svg">
<g clip-path="url(#clip0_401_2950)">
<path d="M34.1417 22.1742L34.3962 21.2943C34.6995 20.2476 34.5867 19.2799 34.0779 18.569C33.6095 17.9142 32.8293 17.5285 31.8815 17.4837L13.9324 17.2566C13.8767 17.2555 13.822 17.2413 13.7729 17.2152C13.7236 17.1891 13.6813 17.1518 13.6492 17.1063C13.6178 17.0592 13.5978 17.0055 13.5907 16.9494C13.5838 16.8932 13.59 16.8362 13.6088 16.7829C13.6396 16.695 13.6955 16.618 13.7696 16.5615C13.8438 16.505 13.9327 16.4714 14.0258 16.4648L32.1412 16.2353C34.2902 16.1366 36.6168 14.3943 37.4313 12.2695L38.4644 9.57206C38.5068 9.45799 38.5165 9.33441 38.4924 9.21517C37.3194 3.94272 32.6104 0 26.9801 0C21.7926 0 17.3879 3.34576 15.808 7.99618C14.7403 7.19542 13.4092 6.8273 12.0815 6.96554C9.59276 7.21249 7.59172 9.21476 7.34535 11.7021C7.28221 12.3231 7.3284 12.9505 7.4822 13.5556C3.41663 13.674 0.15625 17.0024 0.15625 21.0938C0.156769 21.459 0.183756 21.8237 0.237043 22.1851C0.248807 22.2685 0.290159 22.345 0.353653 22.4005C0.417148 22.4561 0.498638 22.4869 0.582894 22.4874L33.7203 22.4915C33.7234 22.4917 33.7265 22.4917 33.7296 22.4915C33.8234 22.4898 33.914 22.4581 33.9883 22.401C34.0625 22.3438 34.1163 22.2644 34.1417 22.1742Z" fill="#F6821F"/>
<path d="M40.1208 9.7677C39.9545 9.7677 39.7887 9.77189 39.6237 9.78023C39.5971 9.78213 39.5709 9.78786 39.546 9.79722C39.5028 9.81199 39.4637 9.83703 39.4322 9.87017C39.4007 9.90332 39.3777 9.94362 39.3652 9.98758L38.6595 12.4235C38.356 13.4703 38.4689 14.4371 38.9782 15.1481C39.4462 15.8036 40.2265 16.1884 41.174 16.2333L45.0005 16.4628C45.0543 16.4646 45.1069 16.4789 45.1543 16.5046C45.2016 16.5303 45.2422 16.5666 45.273 16.6108C45.3048 16.6581 45.3251 16.7121 45.332 16.7686C45.3391 16.8252 45.3327 16.8825 45.3135 16.9361C45.2827 17.0239 45.2268 17.1007 45.1529 17.1572C45.0791 17.2137 44.9901 17.2474 44.8974 17.2542L40.9216 17.4838C38.763 17.5833 36.4368 19.3248 35.623 21.4495L35.3358 22.1997C35.3239 22.231 35.3194 22.2648 35.323 22.2982C35.3266 22.3315 35.3381 22.3637 35.3566 22.3917C35.3751 22.4198 35.3998 22.4431 35.4291 22.4597C35.4583 22.4762 35.4912 22.4857 35.5247 22.4871C35.5284 22.4871 35.5317 22.4871 35.5353 22.4871H49.2156C49.2951 22.4878 49.3727 22.4625 49.4365 22.4149C49.5002 22.3674 49.5467 22.3004 49.5687 22.2239C49.8111 21.3597 49.9336 20.4665 49.9327 19.5689C49.9311 14.1562 45.5387 9.7677 40.1208 9.7677Z" fill="#FBAD41"/>
</g>
<defs>
<clipPath id="clip0_401_2950">
<rect width="50" height="22.6644" fill="white"/>
</clipPath>
</defs>
</svg>
