<svg width="50" height="52" viewBox="0 0 50 52" fill="none" xmlns="http://www.w3.org/2000/svg">
<g clip-path="url(#clip0_401_2348)">
<path d="M50 26.1665C50 24.4443 49.8333 22.6665 49.5556 20.9999H25.5V30.8332H39.2778C38.7222 33.9999 36.8889 36.7777 34.1667 38.5554L42.3889 44.9443C47.2222 40.4443 50 33.8888 50 26.1665Z" fill="#4280EF"/>
<path d="M25.4999 51.0556C32.3888 51.0556 38.1666 48.7778 42.3888 44.8889L34.1666 38.5556C31.8888 40.1111 28.9444 41 25.4999 41C18.8333 41 13.2222 36.5 11.1666 30.5L2.72217 37C7.0555 45.6111 15.8333 51.0556 25.4999 51.0556Z" fill="#34A353"/>
<path d="M11.1664 30.4444C10.1109 27.2778 10.1109 23.8333 11.1664 20.6666L2.72201 14.1111C-0.889106 21.3333 -0.889106 29.8333 2.72201 37L11.1664 30.4444Z" fill="#F6B704"/>
<path d="M25.4999 10.1667C29.1111 10.1111 32.6666 11.5 35.2777 14L42.5555 6.66665C37.9444 2.33331 31.8333 -2.05114e-05 25.4999 0.055535C15.8333 0.055535 7.0555 5.49998 2.72217 14.1111L11.1666 20.6667C13.2222 14.6111 18.8333 10.1667 25.4999 10.1667Z" fill="#E54335"/>
</g>
<defs>
<clipPath id="clip0_401_2348">
<rect width="50" height="51.1111" fill="white"/>
</clipPath>
</defs>
</svg>
