<svg width="50" height="50" viewBox="0 0 50 50" fill="none" xmlns="http://www.w3.org/2000/svg">
<g clip-path="url(#clip0_401_770)">
<path d="M10.7086 31.4962C10.7086 34.3702 8.38581 36.693 5.51179 36.693C2.63778 36.693 0.314941 34.3702 0.314941 31.4962C0.314941 28.6221 2.63778 26.2993 5.51179 26.2993H10.7086V31.4962ZM13.3071 31.4962C13.3071 28.6221 15.6299 26.2993 18.5039 26.2993C21.3779 26.2993 23.7008 28.6221 23.7008 31.4962V44.4883C23.7008 47.3623 21.3779 49.6851 18.5039 49.6851C15.6299 49.6851 13.3071 47.3623 13.3071 44.4883V31.4962Z" fill="#E01E5A"/>
<path d="M18.5037 10.63C15.6297 10.63 13.3069 8.30719 13.3069 5.43318C13.3069 2.55916 15.6297 0.236328 18.5037 0.236328C21.3778 0.236328 23.7006 2.55916 23.7006 5.43318V10.63H18.5037ZM18.5037 13.2678C21.3778 13.2678 23.7006 15.5907 23.7006 18.4647C23.7006 21.3387 21.3778 23.6615 18.5037 23.6615H5.47224C2.59823 23.6615 0.275391 21.3387 0.275391 18.4647C0.275391 15.5907 2.59823 13.2678 5.47224 13.2678H18.5037Z" fill="#36C5F0"/>
<path d="M39.3305 18.4647C39.3305 15.5907 41.6533 13.2678 44.5274 13.2678C47.4014 13.2678 49.7242 15.5907 49.7242 18.4647C49.7242 21.3387 47.4014 23.6615 44.5274 23.6615H39.3305V18.4647ZM36.7321 18.4647C36.7321 21.3387 34.4092 23.6615 31.5352 23.6615C28.6612 23.6615 26.3384 21.3387 26.3384 18.4647V5.43318C26.3384 2.55916 28.6612 0.236328 31.5352 0.236328C34.4092 0.236328 36.7321 2.55916 36.7321 5.43318V18.4647Z" fill="#2EB67D"/>
<path d="M31.5352 39.2914C34.4092 39.2914 36.7321 41.6143 36.7321 44.4883C36.7321 47.3623 34.4092 49.6851 31.5352 49.6851C28.6612 49.6851 26.3384 47.3623 26.3384 44.4883V39.2914H31.5352ZM31.5352 36.693C28.6612 36.693 26.3384 34.3702 26.3384 31.4962C26.3384 28.6221 28.6612 26.2993 31.5352 26.2993H44.5667C47.4407 26.2993 49.7636 28.6221 49.7636 31.4962C49.7636 34.3702 47.4407 36.693 44.5667 36.693H31.5352Z" fill="#ECB22E"/>
</g>
<defs>
<clipPath id="clip0_401_770">
<rect width="50" height="50" fill="white"/>
</clipPath>
</defs>
</svg>
